<mxfile host="app.diagrams.net" modified="2023-07-12T12:06:35.959Z" agent="Mozilla/5.0 (Windows NT 10.0; Win64; x64) AppleWebKit/537.36 (KHTML, like Gecko) Chrome/114.0.0.0 Safari/537.36" etag="0zRqnh7qvAhlHn0N7OWT" version="21.5.2" type="github">
  <diagram name="Страница 1" id="-kc1pAD29VJTtzG4Zae9">
    <mxGraphModel dx="1434" dy="1925" grid="1" gridSize="10" guides="1" tooltips="1" connect="1" arrows="1" fold="1" page="1" pageScale="1" pageWidth="827" pageHeight="1169" math="0" shadow="0">
      <root>
        <mxCell id="0" />
        <mxCell id="1" parent="0" />
        <mxCell id="7I4UGYs9dXgX0HLdh45e-3" value="" style="rounded=1;whiteSpace=wrap;html=1;" vertex="1" parent="1">
          <mxGeometry x="40" y="80" width="210" height="40" as="geometry" />
        </mxCell>
        <mxCell id="7I4UGYs9dXgX0HLdh45e-4" value="" style="rounded=1;whiteSpace=wrap;html=1;" vertex="1" parent="1">
          <mxGeometry x="301" y="80" width="226" height="40" as="geometry" />
        </mxCell>
        <mxCell id="7I4UGYs9dXgX0HLdh45e-5" value="" style="rounded=1;whiteSpace=wrap;html=1;" vertex="1" parent="1">
          <mxGeometry x="580" y="80" width="230" height="40" as="geometry" />
        </mxCell>
        <mxCell id="7I4UGYs9dXgX0HLdh45e-6" value="Добавить вопрос" style="text;html=1;strokeColor=none;fillColor=none;align=center;verticalAlign=middle;whiteSpace=wrap;rounded=0;" vertex="1" parent="1">
          <mxGeometry x="50" y="85" width="190" height="30" as="geometry" />
        </mxCell>
        <mxCell id="7I4UGYs9dXgX0HLdh45e-7" value="Обновить вопрос" style="text;html=1;strokeColor=none;fillColor=none;align=center;verticalAlign=middle;whiteSpace=wrap;rounded=0;" vertex="1" parent="1">
          <mxGeometry x="300" y="85" width="230" height="30" as="geometry" />
        </mxCell>
        <mxCell id="7I4UGYs9dXgX0HLdh45e-8" value="Удалить вопрос" style="text;html=1;strokeColor=none;fillColor=none;align=center;verticalAlign=middle;whiteSpace=wrap;rounded=0;" vertex="1" parent="1">
          <mxGeometry x="580" y="85" width="230" height="30" as="geometry" />
        </mxCell>
        <mxCell id="7I4UGYs9dXgX0HLdh45e-9" value="" style="rounded=1;whiteSpace=wrap;html=1;" vertex="1" parent="1">
          <mxGeometry x="301" y="190" width="227" height="40" as="geometry" />
        </mxCell>
        <mxCell id="7I4UGYs9dXgX0HLdh45e-10" value="Посмотреть вопросы" style="text;html=1;strokeColor=none;fillColor=none;align=center;verticalAlign=middle;whiteSpace=wrap;rounded=0;" vertex="1" parent="1">
          <mxGeometry x="320" y="195" width="200" height="30" as="geometry" />
        </mxCell>
        <mxCell id="7I4UGYs9dXgX0HLdh45e-11" value="" style="rounded=0;whiteSpace=wrap;html=1;" vertex="1" parent="1">
          <mxGeometry x="4" y="-40" width="820" height="60" as="geometry" />
        </mxCell>
        <mxCell id="7I4UGYs9dXgX0HLdh45e-12" value="" style="rounded=0;whiteSpace=wrap;html=1;" vertex="1" parent="1">
          <mxGeometry x="710" y="-40" width="114" height="60" as="geometry" />
        </mxCell>
        <mxCell id="7I4UGYs9dXgX0HLdh45e-13" value="Выход" style="text;html=1;strokeColor=none;fillColor=none;align=center;verticalAlign=middle;whiteSpace=wrap;rounded=0;" vertex="1" parent="1">
          <mxGeometry x="720" y="-25" width="90" height="30" as="geometry" />
        </mxCell>
        <mxCell id="7I4UGYs9dXgX0HLdh45e-15" value="Коморка админа" style="text;html=1;strokeColor=none;fillColor=none;align=center;verticalAlign=middle;whiteSpace=wrap;rounded=0;" vertex="1" parent="1">
          <mxGeometry x="334" y="-25" width="160" height="30" as="geometry" />
        </mxCell>
        <mxCell id="7I4UGYs9dXgX0HLdh45e-17" value="" style="rounded=1;whiteSpace=wrap;html=1;" vertex="1" parent="1">
          <mxGeometry x="60" y="360" width="230" height="30" as="geometry" />
        </mxCell>
        <mxCell id="7I4UGYs9dXgX0HLdh45e-18" value="difficult" style="text;html=1;strokeColor=none;fillColor=none;align=center;verticalAlign=middle;whiteSpace=wrap;rounded=0;" vertex="1" parent="1">
          <mxGeometry x="105" y="360" width="140" height="30" as="geometry" />
        </mxCell>
        <mxCell id="7I4UGYs9dXgX0HLdh45e-19" value="" style="rounded=1;whiteSpace=wrap;html=1;" vertex="1" parent="1">
          <mxGeometry x="10" y="420" width="330" height="70" as="geometry" />
        </mxCell>
        <mxCell id="7I4UGYs9dXgX0HLdh45e-20" value="question" style="text;html=1;strokeColor=none;fillColor=none;align=center;verticalAlign=middle;whiteSpace=wrap;rounded=0;" vertex="1" parent="1">
          <mxGeometry x="80" y="440" width="190" height="30" as="geometry" />
        </mxCell>
        <mxCell id="7I4UGYs9dXgX0HLdh45e-21" value="" style="rounded=1;whiteSpace=wrap;html=1;" vertex="1" parent="1">
          <mxGeometry x="100" y="510" width="150" height="40" as="geometry" />
        </mxCell>
        <mxCell id="7I4UGYs9dXgX0HLdh45e-22" value="a" style="text;html=1;strokeColor=none;fillColor=none;align=center;verticalAlign=middle;whiteSpace=wrap;rounded=0;" vertex="1" parent="1">
          <mxGeometry x="145" y="515" width="60" height="30" as="geometry" />
        </mxCell>
        <mxCell id="7I4UGYs9dXgX0HLdh45e-23" value="" style="rounded=1;whiteSpace=wrap;html=1;" vertex="1" parent="1">
          <mxGeometry x="100" y="580" width="150" height="40" as="geometry" />
        </mxCell>
        <mxCell id="7I4UGYs9dXgX0HLdh45e-24" value="" style="rounded=1;whiteSpace=wrap;html=1;" vertex="1" parent="1">
          <mxGeometry x="100" y="650" width="150" height="40" as="geometry" />
        </mxCell>
        <mxCell id="7I4UGYs9dXgX0HLdh45e-25" value="" style="rounded=1;whiteSpace=wrap;html=1;" vertex="1" parent="1">
          <mxGeometry x="100" y="720" width="150" height="40" as="geometry" />
        </mxCell>
        <mxCell id="7I4UGYs9dXgX0HLdh45e-26" value="b" style="text;html=1;strokeColor=none;fillColor=none;align=center;verticalAlign=middle;whiteSpace=wrap;rounded=0;" vertex="1" parent="1">
          <mxGeometry x="145" y="584.5" width="60" height="30" as="geometry" />
        </mxCell>
        <mxCell id="7I4UGYs9dXgX0HLdh45e-27" value="c" style="text;html=1;strokeColor=none;fillColor=none;align=center;verticalAlign=middle;whiteSpace=wrap;rounded=0;" vertex="1" parent="1">
          <mxGeometry x="145" y="655" width="60" height="30" as="geometry" />
        </mxCell>
        <mxCell id="7I4UGYs9dXgX0HLdh45e-28" value="d" style="text;html=1;strokeColor=none;fillColor=none;align=center;verticalAlign=middle;whiteSpace=wrap;rounded=0;" vertex="1" parent="1">
          <mxGeometry x="145" y="725" width="60" height="30" as="geometry" />
        </mxCell>
        <mxCell id="7I4UGYs9dXgX0HLdh45e-29" value="" style="rounded=1;whiteSpace=wrap;html=1;" vertex="1" parent="1">
          <mxGeometry x="100" y="790" width="150" height="40" as="geometry" />
        </mxCell>
        <mxCell id="7I4UGYs9dXgX0HLdh45e-30" value="correct" style="text;html=1;strokeColor=none;fillColor=none;align=center;verticalAlign=middle;whiteSpace=wrap;rounded=0;" vertex="1" parent="1">
          <mxGeometry x="145" y="795" width="60" height="30" as="geometry" />
        </mxCell>
        <mxCell id="7I4UGYs9dXgX0HLdh45e-31" value="" style="endArrow=classic;html=1;rounded=0;exitX=0.5;exitY=1;exitDx=0;exitDy=0;" edge="1" parent="1" source="7I4UGYs9dXgX0HLdh45e-3">
          <mxGeometry width="50" height="50" relative="1" as="geometry">
            <mxPoint x="420" y="460" as="sourcePoint" />
            <mxPoint x="180" y="350" as="targetPoint" />
            <Array as="points">
              <mxPoint x="145" y="240" />
              <mxPoint x="180" y="240" />
            </Array>
          </mxGeometry>
        </mxCell>
        <mxCell id="7I4UGYs9dXgX0HLdh45e-33" value="" style="rounded=1;whiteSpace=wrap;html=1;" vertex="1" parent="1">
          <mxGeometry x="480" y="360" width="230" height="30" as="geometry" />
        </mxCell>
        <mxCell id="7I4UGYs9dXgX0HLdh45e-34" value="difficult" style="text;html=1;strokeColor=none;fillColor=none;align=center;verticalAlign=middle;whiteSpace=wrap;rounded=0;" vertex="1" parent="1">
          <mxGeometry x="525" y="360" width="140" height="30" as="geometry" />
        </mxCell>
        <mxCell id="7I4UGYs9dXgX0HLdh45e-36" value="" style="rounded=1;whiteSpace=wrap;html=1;" vertex="1" parent="1">
          <mxGeometry x="520" y="510" width="150" height="40" as="geometry" />
        </mxCell>
        <mxCell id="7I4UGYs9dXgX0HLdh45e-37" value="a" style="text;html=1;strokeColor=none;fillColor=none;align=center;verticalAlign=middle;whiteSpace=wrap;rounded=0;" vertex="1" parent="1">
          <mxGeometry x="565" y="515" width="60" height="30" as="geometry" />
        </mxCell>
        <mxCell id="7I4UGYs9dXgX0HLdh45e-38" value="" style="rounded=1;whiteSpace=wrap;html=1;" vertex="1" parent="1">
          <mxGeometry x="520" y="580" width="150" height="40" as="geometry" />
        </mxCell>
        <mxCell id="7I4UGYs9dXgX0HLdh45e-39" value="" style="rounded=1;whiteSpace=wrap;html=1;" vertex="1" parent="1">
          <mxGeometry x="520" y="650" width="150" height="40" as="geometry" />
        </mxCell>
        <mxCell id="7I4UGYs9dXgX0HLdh45e-40" value="" style="rounded=1;whiteSpace=wrap;html=1;" vertex="1" parent="1">
          <mxGeometry x="520" y="720" width="150" height="40" as="geometry" />
        </mxCell>
        <mxCell id="7I4UGYs9dXgX0HLdh45e-41" value="b" style="text;html=1;strokeColor=none;fillColor=none;align=center;verticalAlign=middle;whiteSpace=wrap;rounded=0;" vertex="1" parent="1">
          <mxGeometry x="565" y="584.5" width="60" height="30" as="geometry" />
        </mxCell>
        <mxCell id="7I4UGYs9dXgX0HLdh45e-42" value="c" style="text;html=1;strokeColor=none;fillColor=none;align=center;verticalAlign=middle;whiteSpace=wrap;rounded=0;" vertex="1" parent="1">
          <mxGeometry x="565" y="655" width="60" height="30" as="geometry" />
        </mxCell>
        <mxCell id="7I4UGYs9dXgX0HLdh45e-43" value="d" style="text;html=1;strokeColor=none;fillColor=none;align=center;verticalAlign=middle;whiteSpace=wrap;rounded=0;" vertex="1" parent="1">
          <mxGeometry x="565" y="725" width="60" height="30" as="geometry" />
        </mxCell>
        <mxCell id="7I4UGYs9dXgX0HLdh45e-44" value="" style="rounded=1;whiteSpace=wrap;html=1;" vertex="1" parent="1">
          <mxGeometry x="520" y="790" width="150" height="40" as="geometry" />
        </mxCell>
        <mxCell id="7I4UGYs9dXgX0HLdh45e-45" value="correct" style="text;html=1;strokeColor=none;fillColor=none;align=center;verticalAlign=middle;whiteSpace=wrap;rounded=0;" vertex="1" parent="1">
          <mxGeometry x="565" y="795" width="60" height="30" as="geometry" />
        </mxCell>
        <mxCell id="7I4UGYs9dXgX0HLdh45e-46" value="" style="rounded=1;whiteSpace=wrap;html=1;" vertex="1" parent="1">
          <mxGeometry x="440" y="420" width="320" height="60" as="geometry" />
        </mxCell>
        <mxCell id="7I4UGYs9dXgX0HLdh45e-47" value="question" style="text;html=1;strokeColor=none;fillColor=none;align=center;verticalAlign=middle;whiteSpace=wrap;rounded=0;" vertex="1" parent="1">
          <mxGeometry x="540" y="435" width="110" height="30" as="geometry" />
        </mxCell>
        <mxCell id="7I4UGYs9dXgX0HLdh45e-48" value="" style="rounded=1;whiteSpace=wrap;html=1;" vertex="1" parent="1">
          <mxGeometry x="570" y="310" width="50" height="40" as="geometry" />
        </mxCell>
        <mxCell id="7I4UGYs9dXgX0HLdh45e-49" value="id" style="text;html=1;strokeColor=none;fillColor=none;align=center;verticalAlign=middle;whiteSpace=wrap;rounded=0;" vertex="1" parent="1">
          <mxGeometry x="565" y="315" width="60" height="30" as="geometry" />
        </mxCell>
        <mxCell id="7I4UGYs9dXgX0HLdh45e-50" value="" style="endArrow=classic;html=1;rounded=0;exitX=0.5;exitY=1;exitDx=0;exitDy=0;" edge="1" parent="1" source="7I4UGYs9dXgX0HLdh45e-4">
          <mxGeometry width="50" height="50" relative="1" as="geometry">
            <mxPoint x="420" y="360" as="sourcePoint" />
            <mxPoint x="600" y="300" as="targetPoint" />
            <Array as="points">
              <mxPoint x="414" y="160" />
              <mxPoint x="600" y="160" />
            </Array>
          </mxGeometry>
        </mxCell>
        <mxCell id="7I4UGYs9dXgX0HLdh45e-51" value="" style="endArrow=classic;html=1;rounded=0;entryX=1;entryY=0.5;entryDx=0;entryDy=0;exitX=0.5;exitY=1;exitDx=0;exitDy=0;" edge="1" parent="1" source="7I4UGYs9dXgX0HLdh45e-5" target="7I4UGYs9dXgX0HLdh45e-49">
          <mxGeometry width="50" height="50" relative="1" as="geometry">
            <mxPoint x="420" y="460" as="sourcePoint" />
            <mxPoint x="470" y="410" as="targetPoint" />
            <Array as="points">
              <mxPoint x="695" y="330" />
            </Array>
          </mxGeometry>
        </mxCell>
        <mxCell id="7I4UGYs9dXgX0HLdh45e-52" value="" style="endArrow=classic;html=1;rounded=0;exitX=0.5;exitY=1;exitDx=0;exitDy=0;" edge="1" parent="1" source="7I4UGYs9dXgX0HLdh45e-9">
          <mxGeometry width="50" height="50" relative="1" as="geometry">
            <mxPoint x="420" y="560" as="sourcePoint" />
            <mxPoint x="415" y="320" as="targetPoint" />
          </mxGeometry>
        </mxCell>
        <mxCell id="7I4UGYs9dXgX0HLdh45e-53" value="?" style="text;html=1;strokeColor=none;fillColor=none;align=center;verticalAlign=middle;whiteSpace=wrap;rounded=0;perimeterSpacing=3;fontSize=20;" vertex="1" parent="1">
          <mxGeometry x="387.5" y="330" width="55" height="30" as="geometry" />
        </mxCell>
        <mxCell id="7I4UGYs9dXgX0HLdh45e-54" value="" style="rounded=1;whiteSpace=wrap;html=1;" vertex="1" parent="1">
          <mxGeometry x="220" y="850" width="120" height="30" as="geometry" />
        </mxCell>
        <mxCell id="7I4UGYs9dXgX0HLdh45e-56" value="submit" style="text;html=1;strokeColor=none;fillColor=none;align=center;verticalAlign=middle;whiteSpace=wrap;rounded=0;" vertex="1" parent="1">
          <mxGeometry x="250" y="850" width="60" height="30" as="geometry" />
        </mxCell>
        <mxCell id="7I4UGYs9dXgX0HLdh45e-57" value="" style="rounded=1;whiteSpace=wrap;html=1;" vertex="1" parent="1">
          <mxGeometry x="640" y="850" width="120" height="30" as="geometry" />
        </mxCell>
        <mxCell id="7I4UGYs9dXgX0HLdh45e-58" value="submit" style="text;html=1;strokeColor=none;fillColor=none;align=center;verticalAlign=middle;whiteSpace=wrap;rounded=0;" vertex="1" parent="1">
          <mxGeometry x="670" y="850" width="60" height="30" as="geometry" />
        </mxCell>
      </root>
    </mxGraphModel>
  </diagram>
</mxfile>
